<?xml version="1.0" encoding="UTF-8"?>
<svg width="1200pt" height="1200pt" version="1.1" viewBox="0 0 1200 1200" xmlns="http://www.w3.org/2000/svg">
 <path d="m51.84 1032h432l18.84-246.12h194.64l18.84 246.12h432c13.215-0.039062 25.551-6.6289 32.93-17.59 7.3828-10.961 8.8477-24.871 3.9102-37.129l-310.44-768c-5.2461-12.312-14.016-22.797-25.203-30.141s-24.293-11.219-37.676-11.141h-161.88l12 164.04h-124.2l12-164.04h-161.28c-13.52 0.019531-26.723 4.0703-37.926 11.641-11.203 7.5664-19.891 18.305-24.953 30.84l-310.44 768c-4.4336 12.121-2.7188 25.641 4.5977 36.273 7.3203 10.633 19.336 17.059 32.242 17.246zm478.08-601.2h140.16l17.879 232.92-175.92-0.003906z"/>
</svg>
