<?xml version="1.0" encoding="UTF-8"?>
<svg width="1200pt" height="1200pt" version="1.1" viewBox="0 0 1200 1200" xmlns="http://www.w3.org/2000/svg">
 <path d="m1100 600c0 61.969-11.859 121.03-32.531 175.92-76.031-25.828-155.72-45.656-238.4-58.219 2.8125-38.859 4.3125-78.234 4.3125-117.66s-1.5-78.844-4.3125-117.66c82.688-12.562 162.32-32.391 238.4-58.219 20.672 54.75 32.531 113.86 32.531 175.82zm-77.203-265.69c-63.328-100.31-160.82-176.86-276.47-212.34 33.938 68.344 58.266 159.84 72.328 260.9 70.641-10.969 138.94-27.234 204.14-48.562zm-542.34 471.14c26.25 186.32 84.094 294.56 119.53 294.56 35.484 0 93.281-108.19 119.53-294.56-39.375-3.2344-79.125-5.4375-119.53-5.4375s-80.156 2.2031-119.53 5.4375zm119.53-305.44c-43.781 0-87-2.4375-129.74-6-2.25 33.516-3.6094 68.812-3.6094 105.98s1.3125 72.469 3.5625 105.98c42.797-3.5156 86.016-6 129.79-6 43.777 0 87 2.4375 129.79 6 2.25-33.609 3.5625-68.906 3.5625-105.98s-1.3125-72.469-3.5625-105.98c-42.797 3.5156-86.016 6-129.79 6zm-422.81 365.72c63.234 100.31 160.78 176.86 276.42 212.29-33.938-68.344-58.266-159.84-72.328-260.9-70.547 10.969-138.84 27.234-204.1 48.609zm189.47-265.74c0-39.422 1.5-78.844 4.3125-117.66-82.734-12.609-162.37-32.391-238.4-58.266-20.719 54.844-32.578 113.95-32.578 175.92s11.859 121.03 32.531 175.92c76.031-25.828 155.72-45.656 238.4-58.219-2.7656-38.859-4.2656-78.281-4.2656-117.7zm379.69 478.03c115.59-35.484 213.14-111.98 276.42-212.29-65.203-21.328-133.5-37.594-204.05-48.609-14.062 101.06-38.391 192.56-72.375 260.9zm-292.69-956.06c-115.64 35.484-213.14 112.03-276.47 212.34 65.203 21.328 133.5 37.594 204.1 48.609 14.062-101.11 38.391-192.61 72.375-260.95zm265.87 272.58c-26.25-186.32-84.047-294.56-119.53-294.56-35.438 0-93.281 108.19-119.53 294.56 39.375 3.2344 79.125 5.4375 119.53 5.4375s80.156-2.2031 119.53-5.4375z"/>
</svg>
