<?xml version="1.0" encoding="UTF-8"?>
<svg width="1200pt" height="1200pt" version="1.1" viewBox="0 0 1200 1200" xmlns="http://www.w3.org/2000/svg">
 <path d="m823.71 327.3c0 123.68-100.27 223.95-223.95 223.95s-223.95-100.27-223.95-223.95c0-123.68 100.27-223.95 223.95-223.95s223.95 100.27 223.95 223.95z"/>
 <path d="m806.13 327.3c0 5.7422-0.23437 11.484-0.70312 17.227-0.23438 2.9297-0.58594 5.9766-0.82031 8.9062-0.11719 0.70312-0.46875 3.5156 0 0.11719-0.23438 2.1094-0.58594 4.2188-0.9375 6.3281-1.875 10.898-4.4531 21.797-7.9688 32.344-1.6406 4.9219-3.5156 9.8438-5.3906 14.648s1.5234-3.1641-0.70312 1.5234c-0.46875 0.9375-0.82031 1.875-1.2891 2.8125-1.2891 2.8125-2.6953 5.625-3.9844 8.4375-4.9219 9.6094-10.547 18.867-16.758 27.773-0.9375 1.2891-1.7578 2.4609-2.6953 3.75 0.11719-0.11719-2.9297 3.8672-1.4062 1.875 1.5234-1.9922-1.5234 1.9922-1.5234 1.875-0.9375 1.1719-1.9922 2.3438-2.9297 3.5156-3.6328 4.3359-7.3828 8.5547-11.367 12.539-3.5156 3.6328-7.2656 7.2656-11.016 10.664-1.875 1.7578-3.8672 3.3984-5.8594 5.0391-0.9375 0.82031-1.9922 1.6406-2.9297 2.4609-0.58594 0.46875-4.9219 3.75-1.875 1.5234-8.6719 6.4453-17.695 12.422-27.07 17.695-4.8047 2.5781-9.6094 5.0391-14.531 7.3828-1.1719 0.58594-2.3438 1.0547-3.5156 1.6406-4.5703 2.1094 1.9922-0.82031-0.82031 0.35156-2.9297 1.1719-5.8594 2.3438-8.7891 3.3984-10.664 3.8672-21.562 6.9141-32.695 9.1406-2.5781 0.46875-5.2734 0.9375-7.8516 1.4062-1.0547 0.11719-2.1094 0.35156-3.1641 0.46875-5.2734 0.82031 3.6328-0.35156-1.7578 0.23437-5.9766 0.58594-11.836 1.1719-17.812 1.4062-11.484 0.46875-22.969-0.23437-34.336-1.4062-5.2734-0.46875 3.5156 0.58594-1.7578-0.23437-1.0547-0.11719-2.1094-0.35156-3.1641-0.46875-2.9297-0.46875-5.7422-0.9375-8.6719-1.5234-5.7422-1.1719-11.367-2.4609-16.992-4.1016-5.2734-1.5234-10.547-3.1641-15.703-5.0391-2.4609-0.9375-4.9219-1.875-7.2656-2.8125-4.6875-1.875 1.9922 0.82031-0.82031-0.35156-1.6406-0.70312-3.2812-1.5234-4.9219-2.2266-9.8438-4.5703-19.336-9.8438-28.359-15.82-4.3359-2.8125-8.4375-5.7422-12.539-8.9062 3.0469 2.3438-0.9375-0.70313-1.2891-1.0547-0.82031-0.58594-1.6406-1.2891-2.3438-1.9922-2.3438-1.9922-4.6875-3.9844-7.0312-5.9766-8.4375-7.5-16.172-15.703-23.32-24.375-0.70312-0.82031-1.2891-1.6406-1.9922-2.3438-0.23438-0.35156-3.3984-4.3359-1.0547-1.2891-1.5234-1.9922-3.0469-4.1016-4.5703-6.2109-3.2812-4.5703-6.3281-9.375-9.2578-14.18-2.6953-4.4531-5.1562-8.9062-7.5-13.594-1.1719-2.3438-2.3438-4.6875-3.3984-7.0312-0.70313-1.4062-1.2891-2.8125-1.875-4.2188-2.1094-4.6875 1.1719 3.2812-0.70313-1.5234-4.1016-10.547-7.7344-21.211-10.312-32.109-1.2891-5.3906-2.3438-10.898-3.2812-16.406-0.11719-1.0547-0.35156-2.1094-0.46875-3.1641-0.82031-5.2734 0.35156 3.6328-0.23437-1.7578-0.35156-3.2812-0.70313-6.4453-0.9375-9.7266-0.82031-11.484-0.82031-22.969 0.11719-34.453 0.23438-2.6953 0.46875-5.3906 0.82031-8.0859 0.46875-5.2734-0.58594 3.5156 0.23437-1.7578 0.11719-1.0547 0.35156-2.1094 0.46875-3.1641 0.9375-5.7422 2.1094-11.484 3.3984-17.227 2.6953-10.898 6.2109-21.68 10.43-32.109 1.1719-2.8125-1.7578 3.75 0.35156-0.82031 0.58594-1.4062 1.2891-2.8125 1.875-4.2188 1.0547-2.3438 2.2266-4.6875 3.3984-7.0312 2.5781-5.0391 5.2734-9.9609 8.3203-14.883 2.6953-4.3359 5.5078-8.6719 8.4375-12.891 1.5234-2.1094 3.0469-4.1016 4.5703-6.2109-2.3438 3.0469 0.70313-0.9375 1.0547-1.2891 0.9375-1.1719 1.9922-2.3438 2.9297-3.5156 6.9141-8.2031 14.414-15.938 22.383-23.203 2.1094-1.875 4.2188-3.75 6.4453-5.5078 0.9375-0.82031 1.9922-1.6406 2.9297-2.4609-0.11719 0.11719 3.8672-3.0469 1.875-1.5234s1.9922-1.5234 1.875-1.4062c1.2891-0.9375 2.4609-1.7578 3.75-2.6953 2.4609-1.7578 5.0391-3.5156 7.6172-5.1562 9.1406-5.8594 18.633-11.133 28.477-15.586 0.9375-0.46875 1.875-0.82031 2.8125-1.2891 4.6875-2.1094-3.2812 1.2891 1.5234-0.70313 2.4609-0.9375 4.8047-1.875 7.2656-2.8125 5.3906-1.9922 10.898-3.75 16.406-5.2734 5.0391-1.4062 10.195-2.6953 15.469-3.75 2.9297-0.58594 5.7422-1.1719 8.6719-1.6406 1.2891-0.23438 2.6953-0.46875 3.9844-0.58594 4.2188-0.58594-2.2266 0.11719 1.7578-0.23437 11.953-1.1719 23.906-1.7578 35.977-1.2891 5.3906 0.23438 10.781 0.70312 16.172 1.2891 5.1562 0.46875-2.2266-0.35156 0.9375 0.11719 1.2891 0.23438 2.6953 0.35156 3.9844 0.58594 3.1641 0.46875 6.3281 1.0547 9.4922 1.7578 10.781 2.2266 21.445 5.2734 31.875 9.0234 2.4609 0.9375 4.9219 1.875 7.2656 2.8125 4.8047 1.875-3.1641-1.5234 1.5234 0.70313 0.9375 0.46875 1.875 0.82031 2.8125 1.2891 5.3906 2.4609 10.664 5.1562 15.938 8.0859 4.6875 2.5781 9.375 5.3906 13.828 8.4375 2.1094 1.4062 4.2188 2.8125 6.3281 4.3359 0.82031 0.58594 1.6406 1.1719 2.4609 1.7578 0.58594 0.35156 5.625 4.2188 2.5781 1.875 8.4375 6.5625 16.523 13.828 23.906 21.562 3.5156 3.75 6.9141 7.5 10.195 11.484 1.6406 1.9922 3.2812 3.9844 4.8047 5.9766-2.3438-3.0469 0.70312 0.9375 0.9375 1.2891 0.9375 1.2891 1.7578 2.4609 2.6953 3.75 6.3281 9.0234 12.07 18.516 17.109 28.477 1.2891 2.5781 2.4609 5.1562 3.75 7.7344 0.46875 0.9375 0.82031 1.875 1.2891 2.8125 2.1094 4.6875-1.2891-3.2812 0.70312 1.5234 2.1094 5.3906 4.1016 10.664 5.8594 16.172 3.3984 10.547 5.9766 21.445 7.7344 32.344 0.23438 1.6406 0.46875 3.1641 0.70312 4.8047-0.11719-0.70312-0.35156-3.3984 0 0.11719 0.23438 2.6953 0.58594 5.3906 0.82031 8.0859 0.70313 5.8594 0.9375 11.836 0.9375 17.93 0 9.1406 8.0859 18.047 17.578 17.578 9.4922-0.46875 17.578-7.7344 17.578-17.578-0.23437-49.453-15.352-98.789-44.18-139.1-28.945-40.43-68.906-71.016-115.66-88.125-93.633-34.219-203.44-4.4531-266.84 72.422-32.227 39.023-51.562 86.367-55.547 136.88-3.9844 49.57 8.3203 100.55 34.102 142.97 24.961 41.016 62.461 75 106.41 94.688 46.758 20.859 98.32 26.953 148.59 16.992 96.562-19.102 175.2-100.43 190.08-197.81 1.9922-12.891 3.1641-25.781 3.1641-38.789 0-9.1406-8.0859-18.047-17.578-17.578-9.7266 0.23438-17.695 7.6172-17.695 17.461z"/>
 <path d="m1010.7 1097.7h-821.37c-33.633 0-60.82-27.305-60.82-60.82v-40.781c0-205.31 166.41-371.72 371.72-371.72h199.57c205.31 0 371.72 166.41 371.72 371.72v40.781c0.11719 33.633-27.188 60.82-60.82 60.82z"/>
 <path d="m1010.7 1080.1h-25.078-68.086-99.141-119.18-127.97-125.98-111.56-86.484-50.039-7.8516-1.7578c-1.6406 0-3.2812-0.11719-4.9219-0.35156 3.5156 0.35156-2.1094-0.46875-3.1641-0.70312-1.7578-0.46875-3.5156-0.9375-5.2734-1.5234-0.70312-0.23437-1.5234-0.58594-2.2266-0.82031 0.23438 0.11719 2.4609 1.1719 0.58594 0.23438-3.5156-1.6406-6.7969-3.6328-9.9609-5.8594 2.4609 1.6406-0.35156-0.35156-1.2891-1.0547-1.2891-1.1719-2.5781-2.4609-3.8672-3.75-1.0547-1.0547-2.1094-2.2266-3.0469-3.3984-1.7578-2.1094 1.4062 2.1094 0-0.11719-0.58594-0.82031-1.1719-1.6406-1.6406-2.5781-0.9375-1.5234-1.875-3.0469-2.6953-4.6875-0.46875-1.0547-1.7578-4.2188-0.70313-1.5234-1.4062-3.75-2.3438-7.5-3.1641-11.367-0.35156-1.9922 0 0.35156 0.11719 0.70312-0.11719-0.82031-0.11719-1.6406-0.23438-2.4609-0.11719-1.4062-0.11719-2.8125-0.11719-4.1016v-2.4609-12.773-24.961c0-13.242 0.70312-26.484 1.9922-39.727 0.11719-1.6406 0.35156-3.1641 0.58594-4.8047 0.11719-0.70312 0.70312-5.7422 0.46875-4.1016-0.23438 1.9922 0.11719-0.58594 0.11719-0.82031 0.11719-1.0547 0.35156-2.1094 0.46875-3.1641 0.23437-1.875 0.58594-3.75 0.9375-5.5078 1.2891-7.3828 2.6953-14.648 4.3359-21.914 3.2812-14.062 7.3828-28.008 12.188-41.602 1.1719-3.1641 2.3438-6.3281 3.5156-9.4922 0.70312-1.6406 1.2891-3.3984 1.9922-5.0391 0.35156-0.70312 0.58594-1.4062 0.9375-2.1094 1.0547-2.6953-1.6406 3.75 0.35156-0.82031 2.8125-6.4453 5.7422-12.773 8.9062-18.984 6.3281-12.656 13.477-24.961 21.211-36.797 3.9844-5.9766 8.0859-11.953 12.305-17.695 0.9375-1.2891 1.875-2.4609 2.8125-3.6328 0.35156-0.46875 1.9922-2.5781 0.11719-0.11719 0.46875-0.58594 0.9375-1.1719 1.4062-1.7578 2.2266-2.8125 4.4531-5.625 6.7969-8.3203 9.0234-10.781 18.633-21.094 28.828-30.82 5.1562-4.9219 10.547-9.7266 15.938-14.414 2.5781-2.1094 5.1562-4.2188 7.7344-6.3281 1.4062-1.1719 2.8125-2.2266 4.2188-3.2812-2.4609 1.9922 1.1719-0.82031 1.9922-1.4062 22.852-17.109 47.695-31.641 73.945-43.125 0.9375-0.46875 4.3359-1.875 1.5234-0.70312 1.6406-0.70312 3.3984-1.4062 5.0391-2.1094 3.3984-1.4062 6.7969-2.6953 10.195-3.8672 6.6797-2.4609 13.359-4.6875 20.039-6.6797 14.18-4.3359 28.594-7.7344 43.242-10.312 3.3984-0.58594 6.9141-1.1719 10.312-1.6406 0.82031-0.11719 1.6406-0.23438 2.3438-0.35156-0.23438 0-2.8125 0.35156-0.70312 0.11719s4.2188-0.58594 6.4453-0.82031c7.5-0.82031 15.117-1.4062 22.734-1.875 7.0312-0.35156 14.062-0.46875 21.211-0.46875h95.273 98.672c5.2734 0 10.547 0 15.82 0.23438 7.6172 0.23437 15.234 0.70312 22.852 1.4062 3.5156 0.35156 7.0312 0.70312 10.43 1.1719 0.82031 0.11719 1.6406 0.23438 2.3438 0.35156 2.8125 0.35156-2.6953-0.35156 0.11719 0 1.875 0.23438 3.75 0.58594 5.5078 0.82031 28.711 4.5703 56.602 12.539 83.438 23.438 3.1641 1.2891 0.70312 0.35156 0.11719 0 0.70313 0.35156 1.4062 0.58594 2.1094 0.9375 1.6406 0.70312 3.2812 1.4062 4.9219 2.2266 3.2812 1.5234 6.5625 3.0469 9.8438 4.6875 6.4453 3.1641 12.891 6.5625 19.219 10.078 12.305 6.9141 24.258 14.531 35.625 22.852 2.6953 1.9922 5.3906 3.9844 7.9688 5.9766-2.3438-1.7578 0.46875 0.35156 1.2891 1.0547 1.6406 1.2891 3.1641 2.5781 4.8047 3.8672 5.5078 4.5703 10.898 9.2578 16.172 14.062 10.312 9.4922 20.156 19.688 29.414 30.234 2.2266 2.4609 4.3359 5.0391 6.4453 7.6172 1.1719 1.4062 2.2266 2.8125 3.3984 4.2188 0.58594 0.82031 3.3984 4.4531 1.5234 1.875 4.3359 5.7422 8.5547 11.484 12.656 17.461 7.9688 11.719 15.234 23.906 21.797 36.445 3.2812 6.2109 6.3281 12.422 9.1406 18.867 0.70312 1.6406 1.5234 3.2812 2.2266 4.9219 0.35156 0.70312 0.58594 1.4062 0.9375 2.1094-0.23438-0.58594-1.2891-3.0469 0 0.11719 1.4062 3.3984 2.6953 6.7969 3.9844 10.195 5.1562 13.477 9.375 27.305 12.891 41.25 1.7578 6.9141 3.2812 13.945 4.5703 20.977 0.70313 3.6328 1.2891 7.3828 1.875 11.016 0.23438 1.6406 0.46875 3.1641 0.70313 4.8047 0.46875 3.5156 0.11719 0.82031 0 0.11719 0.11719 1.0547 0.23437 2.1094 0.35156 3.1641 1.875 14.883 2.6953 29.883 2.8125 44.766 0 14.648 0.58594 29.414 0 44.062 0 1.0547-0.70312 5.8594-0.11719 2.5781-0.23437 1.5234-0.58594 3.1641-0.9375 4.6875-0.46875 1.7578-0.9375 3.5156-1.5234 5.2734-0.23438 0.70312-0.58594 1.5234-0.82031 2.2266 1.0547-2.9297 0.23438-0.58594-0.11719 0.11719-1.5234 3.0469-3.2812 5.8594-5.0391 8.6719-1.0547 1.6406 0.23438-0.23437 0.46875-0.46875-0.58594 0.82031-1.2891 1.6406-1.9922 2.3438-1.0547 1.1719-2.1094 2.2266-3.1641 3.2812-1.2891 1.2891-2.5781 2.4609-3.9844 3.5156-1.5234 1.2891 0.23437-0.23438 0.46875-0.46875-0.58594 0.46875-1.2891 0.9375-1.875 1.2891-1.5234 0.9375-3.0469 1.875-4.5703 2.8125-0.70312 0.35156-5.0391 2.3438-3.5156 1.7578 1.5234-0.58594-2.3438 0.82031-3.0469 0.9375-1.7578 0.58594-3.5156 1.0547-5.3906 1.4062-1.1719 0.23438-4.6875 0.70313-1.6406 0.35156-1.875 0.23438-3.9844 0.35156-6.2109 0.35156-9.1406 0.11719-18.047 7.9688-17.578 17.578 0.46875 9.375 7.7344 17.695 17.578 17.578 35.156-0.46875 67.148-24.258 75.938-58.594 4.8047-18.516 2.5781-39.375 2.5781-58.359 0-58.945-12.773-116.72-37.969-170.04-25.078-52.852-62.812-100.31-108.75-136.64-47.461-37.5-102.89-64.336-162.3-76.641-37.148-7.7344-74.297-8.3203-112.03-8.3203h-122.7c-34.453 0-68.555-0.46875-102.77 4.3359-58.945 8.4375-116.25 31.172-164.88 65.508-48.867 34.336-89.883 79.336-118.71 131.72-29.648 54.023-46.172 114.73-48.047 176.25-0.46875 17.227-0.35156 34.453-0.23438 51.562 0.23438 33.516 20.625 62.578 51.914 74.414 14.883 5.625 30.938 4.6875 46.641 4.6875h65.039 99.141 120.94 130.66 128.32 114.02 87.656 49.102 6.3281c9.1406 0 18.047-8.0859 17.578-17.578-0.23438-9.375-7.6172-17.461-17.461-17.461z"/>
</svg>
