<?xml version="1.0" encoding="UTF-8"?>
<svg width="1200pt" height="1200pt" version="1.1" viewBox="0 0 1200 1200" xmlns="http://www.w3.org/2000/svg">
 <path d="m229.29 12.457h741.39c29.988 0 57.277 12.277 77.004 32.004 19.766 19.766 32.004 47.016 32.004 77.039v957c0 29.988-12.277 57.277-32.004 77.039-19.727 19.727-47.016 32.004-77.004 32.004h-741.39c-29.988 0-57.277-12.277-77.004-32.004-19.766-19.766-32.004-47.016-32.004-77.039v-957c0-29.988 12.277-57.277 32.004-77.039 19.727-19.727 47.016-32.004 77.004-32.004zm46.262 306.8c-10.766-10.727-10.766-28.188 0-38.918 10.766-10.766 28.188-10.766 38.953 0l57.312 57.312 109.37-109.33c10.727-10.727 28.188-10.727 38.918 0 10.766 10.766 10.766 28.188 0 38.953l-128.81 128.81c-10.766 10.727-28.188 10.727-38.918 0zm296.82 617.73c-15.191 0-27.539-12.348-27.539-27.539 0-15.191 12.348-27.539 27.539-27.539h332.57c15.191 0 27.539 12.348 27.539 27.539 0 15.191-12.348 27.539-27.539 27.539zm-296.82-42.156c-10.766-10.727-10.766-28.188 0-38.918 10.766-10.766 28.188-10.766 38.953 0l57.312 57.348 109.37-109.37c10.727-10.727 28.188-10.727 38.918 0 10.766 10.766 10.766 28.188 0 38.953l-128.81 128.81c-10.766 10.727-28.188 10.727-38.918 0zm296.82-245.63c-15.191 0-27.539-12.348-27.539-27.539s12.348-27.539 27.539-27.539h332.57c15.191 0 27.539 12.348 27.539 27.539 0 15.227-12.348 27.539-27.539 27.539zm-296.82-42.156c-10.766-10.766-10.766-28.188 0-38.953 10.766-10.727 28.188-10.727 38.953 0l57.312 57.348 109.37-109.33c10.727-10.766 28.188-10.766 38.918 0 10.766 10.727 10.766 28.188 0 38.918l-128.81 128.81c-10.766 10.766-28.188 10.766-38.918 0l-76.789-76.789zm296.82-245.67c-15.191 0-27.539-12.348-27.539-27.539 0-15.191 12.348-27.539 27.539-27.539h332.57c15.191 0 27.539 12.348 27.539 27.539 0 15.191-12.348 27.539-27.539 27.539z" fill-rule="evenodd"/>
</svg>
